<svg xmlns="http://www.w3.org/2000/svg"  viewBox="0 0 48 48" width="96px" height="96px"><path d="M 12.5 5 A 1.50015 1.50015 0 1 0 12.5 8 L 19.5 8 A 1.50015 1.50015 0 1 0 19.5 5 L 12.5 5 z M 28.5 5 A 1.50015 1.50015 0 1 0 28.5 8 L 35.5 8 A 1.50015 1.50015 0 1 0 35.5 5 L 28.5 5 z M 13.5 11 C 11.57 11 10 12.57 10 14.5 L 10 20.257812 C 8.254 20.876813 7 22.544 7 24.5 L 7 41.5 C 7 42.328 7.672 43 8.5 43 L 19.5 43 C 20.328 43 21 42.328 21 41.5 L 21 24 L 27 24 L 27 41.5 C 27 42.328 27.672 43 28.5 43 L 39.5 43 C 40.328 43 41 42.328 41 41.5 L 41 24.5 C 41 22.544 39.746 20.876812 38 20.257812 L 38 14.5 C 38 12.57 36.43 11 34.5 11 L 30.5 11 C 28.57 11 27 12.57 27 14.5 L 27 17 L 21 17 L 21 14.5 C 21 12.57 19.43 11 17.5 11 L 13.5 11 z"/></svg>